<?xml version="1.0" standalone="no"?><!DOCTYPE svg PUBLIC "-//W3C//DTD SVG 1.1//EN" "http://www.w3.org/Graphics/SVG/1.1/DTD/svg11.dtd"><svg t="1685266814403" class="icon" viewBox="0 0 1024 1024" version="1.1" xmlns="http://www.w3.org/2000/svg" p-id="3638" xmlns:xlink="http://www.w3.org/1999/xlink" width="48" height="48"><path d="M527.104 697.770667l161.792 161.792a21.333333 21.333333 0 0 1-15.061333 36.437333H350.165333a21.333333 21.333333 0 0 1-15.061333-36.437333l161.792-161.792a21.333333 21.333333 0 0 1 30.208 0zM810.666667 128a128 128 0 0 1 127.786666 120.490667L938.666667 256v426.666667a128 128 0 0 1-120.490667 127.786666L810.666667 810.666667h-110.293334l-85.333333-85.333334H810.666667a42.666667 42.666667 0 0 0 42.368-37.674666L853.333333 682.666667V256a42.666667 42.666667 0 0 0-37.674666-42.368L810.666667 213.333333H213.333333a42.666667 42.666667 0 0 0-42.368 37.674667L170.666667 256v426.666667a42.666667 42.666667 0 0 0 37.674666 42.368L213.333333 725.333333h195.584l-85.333333 85.333334H213.333333a128 128 0 0 1-127.786666-120.490667L85.333333 682.666667V256a128 128 0 0 1 120.490667-127.786667L213.333333 128h597.333334z" fill="#2c2c2c" p-id="3639"></path></svg>