<?xml version="1.0" standalone="no"?><!DOCTYPE svg PUBLIC "-//W3C//DTD SVG 1.1//EN" "http://www.w3.org/Graphics/SVG/1.1/DTD/svg11.dtd"><svg t="1683814217885" class="icon" viewBox="0 0 1024 1024" version="1.1" xmlns="http://www.w3.org/2000/svg" p-id="4366" width="48" height="48" xmlns:xlink="http://www.w3.org/1999/xlink"><path d="M1001.984 278.528c0-102.912-83.456-186.368-186.368-185.856-59.904 0-115.712 28.672-151.04 77.312-48.64-20.48-100.352-30.72-153.088-30.72h-0.512c-52.224 0-103.936 10.752-152.064 30.72-22.016-30.72-52.736-53.76-87.552-66.56-96.768-34.816-203.264 15.36-238.08 112.128C1.024 304.64 40.96 403.456 125.44 445.44c-49.664 213.504 82.944 426.496 296.448 476.16 213.504 49.664 426.496-82.944 476.16-296.448 13.824-58.88 13.824-120.32 0-179.712 63.488-31.232 103.936-96.256 103.936-166.912z m-783.36 173.056L236.032 389.12l-60.928-22.016c-49.152-17.92-74.24-72.192-56.32-120.832s72.192-74.24 120.832-56.32c20.992 7.68 38.912 22.528 50.176 42.496l31.744 56.32 58.368-28.16c82.944-39.424 179.712-39.424 262.656 0l58.368 28.16 31.744-56.32c25.6-45.568 83.456-60.928 129.024-35.328 45.568 25.6 60.928 83.456 35.328 129.024-11.264 19.456-28.672 34.304-49.664 41.984L786.944 389.12l17.92 61.952c46.08 161.792-47.616 330.752-209.408 376.832s-330.752-47.616-376.832-209.408c-15.872-54.272-15.872-112.128 0-166.912z" fill="#3366FF" p-id="4367"></path><path d="M511.488 744.96c58.88 0 115.2-23.04 156.672-65.024 14.336-12.8 15.36-34.816 3.072-48.64s-34.816-15.36-48.64-3.072l-3.072 3.072c-59.392 59.392-156.16 59.392-215.552 0-13.312-13.312-34.816-13.312-48.64-0.512l-0.512 0.512c-13.312 13.312-13.312 35.328 0 49.152 41.472 40.96 97.792 64.512 156.672 64.512z" fill="#AEC9FF" p-id="4368"></path></svg>