<?xml version="1.0" standalone="no"?><!DOCTYPE svg PUBLIC "-//W3C//DTD SVG 1.1//EN" "http://www.w3.org/Graphics/SVG/1.1/DTD/svg11.dtd"><svg t="1684245140567" class="icon" viewBox="0 0 1024 1024" version="1.1" xmlns="http://www.w3.org/2000/svg" p-id="1174" xmlns:xlink="http://www.w3.org/1999/xlink" width="48" height="48"><path d="M511.3 175.4l66.3 134.3c27.5 55.7 80.6 94.3 142 103.2l148.2 21.5-107.2 104.5c-44.5 43.3-64.7 105.8-54.2 167l25.3 147.6-132.5-69.7c-27-14.2-57.3-21.7-87.8-21.7s-60.8 7.5-87.8 21.7L291 853.5l25.3-147.6c10.5-61.2-9.8-123.6-54.2-167L154.9 434.4 303 412.9c61.4-8.9 114.5-47.5 142-103.2l66.3-134.3m0-95.9c-24 0-48.1 12.5-60.4 37.6l-77.6 157.2c-15.8 32.1-46.4 54.3-81.8 59.4L118 358.9c-55.3 8-77.3 76-37.3 114.9l125.5 122.4c25.6 25 37.3 60.9 31.2 96.1l-29.6 172.8c-7.5 43.6 27.1 78.9 66.4 78.9 10.4 0 21.1-2.5 31.4-7.9l155.2-81.6c15.8-8.3 33.2-12.5 50.5-12.5s34.7 4.2 50.5 12.5L717 936.2c10.3 5.4 21 7.9 31.4 7.9 39.3 0 73.9-35.4 66.4-78.9l-29.6-172.8c-6-35.2 5.6-71.2 31.2-96.1L942 473.9c40-39 17.9-106.9-37.3-114.9l-173.5-25.2c-35.4-5.1-66-27.4-81.8-59.4l-77.6-157.2c-12.4-25.2-36.4-37.7-60.5-37.7z" p-id="1175" fill="#2c2c2c"></path></svg>