<?xml version="1.0" standalone="no"?><!DOCTYPE svg PUBLIC "-//W3C//DTD SVG 1.1//EN" "http://www.w3.org/Graphics/SVG/1.1/DTD/svg11.dtd"><svg t="1684245471896" class="icon" viewBox="0 0 1024 1024" version="1.1" xmlns="http://www.w3.org/2000/svg" p-id="3571" xmlns:xlink="http://www.w3.org/1999/xlink" width="48" height="48"><path d="M512 11.636364C235.659636 11.636364 11.636364 235.659636 11.636364 512S235.659636 1012.363636 512 1012.363636 1012.363636 788.340364 1012.363636 512 788.340364 11.636364 512 11.636364z m0 69.818181c237.777455 0 430.545455 192.768 430.545455 430.545455S749.777455 942.545455 512 942.545455 81.454545 749.777455 81.454545 512 274.222545 81.454545 512 81.454545z" fill="#2c2c2c" p-id="3572"></path><path d="M512 325.818182a34.909091 34.909091 0 0 1 34.746182 31.557818l0.162909 3.351273v236.753454l76.520727-57.646545a34.909091 34.909091 0 0 1 46.754909 4.282182l2.141091 2.56a34.909091 34.909091 0 0 1-6.865454 48.919272l-130.094546 98.024728c-7.68 5.794909-16.989091 7.912727-25.786182 6.702545a34.792727 34.792727 0 0 1-25.786181-6.702545l-130.094546-98.024728a34.909091 34.909091 0 1 1 42.007273-55.761454L477.090909 601.134545V360.727273A34.909091 34.909091 0 0 1 512 325.818182z" fill="#2c2c2c" p-id="3573"></path></svg>