<?xml version="1.0" standalone="no"?><!DOCTYPE svg PUBLIC "-//W3C//DTD SVG 1.1//EN" "http://www.w3.org/Graphics/SVG/1.1/DTD/svg11.dtd"><svg t="1683974513468" class="icon" viewBox="0 0 1024 1024" version="1.1" xmlns="http://www.w3.org/2000/svg" p-id="15398" xmlns:xlink="http://www.w3.org/1999/xlink" width="48" height="48"><path d="M795.0336 424.7552l-1.6384-6.5536c0-153.088-125.0304-278.1184-278.1184-278.1184S237.1584 265.1136 237.1584 418.2016l-8.192 6.5536C126.8736 449.4336 51.2 541.5936 51.2 651.8784 51.2 780.288 154.8288 883.9168 283.2384 883.9168H742.4C870.8096 883.9168 972.8 780.288 972.8 651.8784c0-110.2848-75.6736-202.4448-177.7664-227.1232z m-92.16 149.8112L535.04 740.7616c-3.2768 1.6384-4.9152 3.2768-8.192 4.9152-3.2768 1.6384-8.192 3.2768-13.2096 3.2768s-8.192-1.6384-13.2096-3.2768c-3.2768-1.6384-8.192-3.2768-11.5712-6.5536L330.9568 577.8432c-6.5536-6.5536-9.8304-14.848-9.8304-23.04s3.2768-16.4864 9.8304-23.04c13.2096-13.2096 32.8704-13.2096 46.08 0l105.3696 105.3696V401.7152c0-18.1248 14.848-32.8704 32.8704-32.8704s32.8704 14.848 32.8704 32.8704v235.3152L656.7936 528.384c6.5536-6.5536 14.848-9.8304 23.04-9.8304s16.4864 3.2768 23.04 9.8304c6.5536 6.5536 9.8304 14.848 9.8304 23.04s-3.1744 16.4864-9.8304 23.1424z" fill="#409EFF" p-id="15399"></path></svg>