<?xml version="1.0" standalone="no"?><!DOCTYPE svg PUBLIC "-//W3C//DTD SVG 1.1//EN" "http://www.w3.org/Graphics/SVG/1.1/DTD/svg11.dtd"><svg t="1683956084650" class="icon" viewBox="0 0 1024 1024" version="1.1" xmlns="http://www.w3.org/2000/svg" p-id="7206" xmlns:xlink="http://www.w3.org/1999/xlink" width="48" height="48"><path d="M394.666667 746.666667m0-32l0-192q0-32 32-32l0 0q32 0 32 32l0 192q0 32-32 32l0 0q-32 0-32-32Z" fill="#4E78FE" p-id="7207"></path><path d="M565.333333 746.666667m0-32l0-192q0-32 32-32l0 0q32 0 32 32l0 192q0 32-32 32l0 0q-32 0-32-32Z" fill="#4E78FE" p-id="7208"></path><path d="M746.666667 405.333333v426.666667h-469.333334v-426.666667h469.333334M768 341.333333H256a42.666667 42.666667 0 0 0-42.666667 42.666667v469.333333a42.666667 42.666667 0 0 0 42.666667 42.666667h512a42.666667 42.666667 0 0 0 42.666667-42.666667V384a42.666667 42.666667 0 0 0-42.666667-42.666667z" fill="#444444" p-id="7209"></path><path d="M853.333333 234.666667h-149.333333V170.666667a42.666667 42.666667 0 0 0-42.666667-42.666667h-298.666666a42.666667 42.666667 0 0 0-42.666667 42.666667v64H170.666667a42.666667 42.666667 0 0 0-42.666667 42.666666v85.333334a42.666667 42.666667 0 0 0 42.666667 42.666666h682.666666a42.666667 42.666667 0 0 0 42.666667-42.666666v-85.333334a42.666667 42.666667 0 0 0-42.666667-42.666666z m-469.333333-42.666667h256v42.666667H384zM832 341.333333h-640V298.666667h640z" fill="#444444" p-id="7210"></path></svg>