<?xml version="1.0" standalone="no"?><!DOCTYPE svg PUBLIC "-//W3C//DTD SVG 1.1//EN" "http://www.w3.org/Graphics/SVG/1.1/DTD/svg11.dtd"><svg t="1684245180034" class="icon" viewBox="0 0 1024 1024" version="1.1" xmlns="http://www.w3.org/2000/svg" p-id="1838" xmlns:xlink="http://www.w3.org/1999/xlink" width="48" height="48"><path d="M747 934H198.5c-66 0-119.7-53.7-119.7-119.7V265.8c0-66 53.7-119.7 119.7-119.7h127.9c22.1 0 40 17.9 40 40s-17.9 40-40 40H198.5c-21.9 0-39.7 17.8-39.7 39.7v548.5c0 21.9 17.8 39.7 39.7 39.7H747c21.9 0 39.7-17.8 39.7-39.7v-121c0-22.1 17.9-40 40-40s40 17.9 40 40v121c0 66-53.7 119.7-119.7 119.7z" fill="#2c2c2c" p-id="1839"></path><path d="M384 728.9c-19.2 0-37.7-7.4-51.7-21.4-19.3-19.3-26.1-47.3-18.1-73.8l26.5-168.1c0.4-2.5 1-5 1.9-7.5 11.3-31 29.7-59.8 53.3-83.4l255-255c22.8-22.8 53.9-35.7 85.3-35.5 29.9 0.2 57.6 11.9 78 32.9l109.1 112.2c21 21.6 31.9 50.6 30.7 81.4-1.2 29.8-13.8 58.2-35.4 79.8L665.1 643.9c-23.6 23.6-52.4 42-83.4 53.3-2.4 0.9-4.9 1.5-7.5 1.9l-168.1 26.5c-7.3 2.2-14.8 3.3-22.1 3.3zM419.1 482l-25.9 164.6 164.6-25.9c18.8-7.4 36.3-18.9 50.8-33.4L862 333.9c14.4-14.4 16.2-36.3 4-48.9L756.9 172.9c-6.9-7.1-15.3-8.6-21.2-8.7-10.2-0.1-20.5 4.3-28.2 12.1l-255 255c-14.5 14.4-26 31.9-33.4 50.7z" fill="#2c2c2c" p-id="1840"></path></svg>