<?xml version="1.0" standalone="no"?><!DOCTYPE svg PUBLIC "-//W3C//DTD SVG 1.1//EN" "http://www.w3.org/Graphics/SVG/1.1/DTD/svg11.dtd"><svg t="1683968675651" class="icon" viewBox="0 0 1173 1024" version="1.1" xmlns="http://www.w3.org/2000/svg" p-id="4186" xmlns:xlink="http://www.w3.org/1999/xlink" width="54.984375" height="48"><path d="M54.496137 39.114163c0 21.534764 17.579399 39.114163 39.114163 39.114163s39.114163-17.579399 39.114164-39.114163-17.579399-39.114163-39.114164-39.114163-39.114163 17.579399-39.114163 39.114163m1004.662661 817.44206c-25.490129 25.490129-66.801717 25.490129-91.85236 0-10.987124 10.108155-21.534764 21.534764-32.082404 32.082404-14.942489 14.942489-30.324464 28.566524-47.024892 41.751073H245.672103c-16.260944-12.745064-32.082403-26.808584-47.024893-41.751073C61.527897 751.958798 11.866094 549.795708 69.878112 364.772532L19.337339 313.792275c-25.490129-25.490129-25.490129-66.801717 0-92.291846s66.801717-25.490129 92.291846 0l32.082403 32.521889c15.381974 15.381974 39.993133 15.381974 55.375107 0s15.381974-39.993133 0-55.375108L138.877253 138.877253c-15.381974-15.381974-15.381974-39.993133 0-55.375107s39.993133-15.381974 55.375108 0L276.875536 166.564807c14.503004 15.821459 39.114163 17.139914 54.935623 2.63691 15.821459-14.503004 17.139914-39.114163 2.63691-54.935623l-2.63691-2.636909-35.598283-35.598284c245.672103-149.424893 566.056652-71.196567 715.04206 174.475537 58.012017 95.807725 83.941631 207.876395 73.393991 319.505579l74.712446 75.151931c15.381974 15.381974 15.381974 39.993133 0 55.375108s-39.993133 15.381974-55.375107 0l-72.954506-73.393992c-15.381974-15.381974-39.993133-15.381974-55.375108 0s-15.381974 39.993133 0 55.375108l83.502146 82.183691c25.050644 25.490129 25.050644 66.801717 0 91.85236" fill="#EBF0F8" p-id="4187"></path><path d="M110.750215 924.23691h832.824034c3.51588 0 6.592275 3.076395 6.592275 6.592275s-3.076395 6.592275-6.592275 6.592274H110.750215c-3.51588 0-6.592275-3.076395-6.592275-6.592274s3.076395-6.592275 6.592275-6.592275z m897.867811 0h39.114163c3.51588 0 6.592275 3.076395 6.592275 6.592275s-3.076395 6.592275-6.592275 6.592274h-39.114163c-3.51588 0-6.592275-3.076395-6.592275-6.592274s3.076395-6.592275 6.592275-6.592275z m-436.848069 39.114163h39.114163c3.51588 0 6.592275 3.076395 6.592275 6.592275s-3.076395 6.592275-6.592275 6.592274h-39.114163c-3.51588 0-6.592275-3.076395-6.592275-6.592274s3.076395-6.592275 6.592275-6.592275m-501.012875 45.706438h169.201716c3.51588 0 6.592275 3.076395 6.592275 6.592274s-3.076395 6.592275-6.592275 6.592275H70.757082c-3.51588 0-6.592275-3.076395-6.592275-6.592275 0-3.955365 3.076395-6.592275 6.592275-6.592274m312.473819 0h637.692704c3.51588 0 6.592275 3.076395 6.592275 6.592274s-3.076395 6.592275-6.592275 6.592275H383.230901c-3.51588 0-6.592275-3.076395-6.592274-6.592275 0-3.955365 2.63691-6.592275 6.592274-6.592274m292.696996-45.706438h169.201717c3.51588 0 6.592275 3.076395 6.592274 6.592275s-3.076395 6.592275-6.592274 6.592274h-169.201717c-3.51588 0-6.592275-3.076395-6.592275-6.592274s3.076395-6.592275 6.592275-6.592275z m-449.153648 0h292.696996c3.51588 0 6.592275 3.076395 6.592274 6.592275s-3.076395 6.592275-6.592274 6.592274H226.774249c-3.51588 0-6.592275-3.076395-6.592275-6.592274s3.076395-6.592275 6.592275-6.592275" fill="#BDCCD4" p-id="4188"></path><path d="M709.328755 279.951931c21.534764 0 39.114163 17.579399 39.114163 39.114163v468.490988c0 21.534764-17.579399 39.114163-39.114163 39.114163H319.066094c-21.534764 0-39.114163-17.579399-39.114163-39.114163V319.066094c0-21.534764 17.579399-39.114163 39.114163-39.114163h390.262661z m-390.262661 13.18455c-14.503004 0-25.929614 11.866094-25.929613 25.929613v468.490988c0 14.503004 11.866094 25.929614 25.929613 25.929613h390.262661c14.503004 0 25.929614-11.866094 25.929614-25.929613V319.066094c0-14.503004-11.866094-25.929614-25.929614-25.929613H319.066094z" fill="#7E9199" p-id="4189"></path><path d="M735.258369 774.812017c0 21.534764-17.579399 39.114163-39.114163 39.114163H338.403433V358.180258c0-21.534764 17.579399-39.114163 39.114164-39.114164h357.740772v455.745923z" fill="#BDCCD4" p-id="4190"></path><path d="M794.149356 338.842918c21.534764 0 39.114163 17.579399 39.114163 39.114164v468.490987c0 21.534764-17.579399 39.114163-39.114163 39.114163H403.44721c-21.534764 0-39.114163-17.579399-39.114163-39.114163V377.517597c0-21.534764 17.579399-39.114163 39.114163-39.114164h390.702146v0.439485z" fill="#FFFFFF" p-id="4191"></path><path d="M794.149356 338.842918c21.534764 0 39.114163 17.579399 39.114163 39.114164v468.490987c0 21.534764-17.579399 39.114163-39.114163 39.114163H403.44721c-21.534764 0-39.114163-17.579399-39.114163-39.114163V377.517597c0-21.534764 17.579399-39.114163 39.114163-39.114164h390.702146v0.439485zM403.44721 351.587983c-14.503004 0-25.929614 11.866094-25.929613 25.929614v468.490987c0 14.503004 11.866094 25.929614 25.929613 25.929613h390.262661c14.503004 0 25.929614-11.866094 25.929614-25.929613V377.517597c0-14.503004-11.866094-25.929614-25.929614-25.929614H403.44721z" fill="#7E9199" p-id="4192"></path><path d="M611.76309 538.369099c3.51588 0 6.592275 3.076395 6.592275 6.592274s-3.076395 6.592275-6.592275 6.592275h-13.184549c-3.51588 0-6.592275-3.076395-6.592275-6.592275s3.076395-6.592275 6.592275-6.592274h13.184549z" fill="#7E9199" p-id="4193"></path><path d="M755.035193 820.07897c3.51588 0 6.592275 3.076395 6.592275 6.592275s-3.076395 6.592275-6.592275 6.592274h-305.881545c-3.51588 0-6.592275-3.076395-6.592275-6.592274s3.076395-6.592275 6.592275-6.592275h305.881545z m0-51.859228c3.51588 0 6.592275 3.076395 6.592275 6.592275s-3.076395 6.592275-6.592275 6.592275h-305.881545c-3.51588 0-6.592275-3.076395-6.592275-6.592275s3.076395-6.592275 6.592275-6.592275h305.881545z m0-52.298712c3.51588 0 6.592275 3.076395 6.592275 6.592275s-3.076395 6.592275-6.592275 6.592274h-305.881545c-3.51588 0-6.592275-3.076395-6.592275-6.592274s3.076395-6.592275 6.592275-6.592275h305.881545z m6.592275-110.31073V676.806867h-319.066095v-71.636052l319.066095 0.439485z" fill="#EBF0F8" p-id="4194"></path><path d="M497.496996 491.783691c-6.592275 0-13.624034-1.318455-20.216309-3.51588-3.51588-1.318455-5.27382-4.834335-3.955365-8.350214 1.318455-3.51588 4.834335-5.27382 8.350214-3.955365 12.305579 4.39485 25.050644 3.51588 36.477254-2.197425 11.426609-5.713305 20.216309-15.381974 24.611158-27.248069 1.318455-3.51588 4.834335-5.27382 8.350215-3.955365 3.51588 1.318455 5.27382 4.834335 3.955365 8.350215-5.27382 15.381974-16.260944 27.687554-31.203434 34.719313-8.350215 3.955365-17.139914 6.15279-26.369098 6.15279m221.060944 0c-9.229185 0-18.018884-2.197425-26.369099-6.15279-14.503004-7.03176-25.929614-19.337339-31.203433-34.719313-1.318455-3.51588 0.439485-7.03176 3.955365-8.350215 3.51588-1.318455 7.03176 0.439485 8.350214 3.955365 4.39485 12.305579 12.745064 21.974249 24.611159 27.248069 11.426609 5.713305 24.611159 6.15279 36.477253 2.197425 3.51588-1.318455 7.03176 0.439485 8.350215 3.955365 1.318455 3.51588-0.439485 7.03176-3.955365 8.350214-6.592275 2.197425-13.184549 3.51588-20.216309 3.51588m141.514163-109.871245c-3.51588 0-6.592275-3.076395-6.592275-6.592274V250.945923c0-3.51588 3.076395-6.592275 6.592275-6.592275s6.592275 3.076395 6.592275 6.592275v124.374249c0 3.51588-3.076395 6.592275-6.592275 6.592274m69.438627 4.39485c-3.51588 0-6.592275-3.076395-6.592275-6.592275v-114.266094c0-3.51588 3.076395-6.592275 6.592275-6.592275s6.592275 3.076395 6.592274 6.592275v114.266094c0 3.51588-3.076395 6.592275-6.592274 6.592275m-34.719314 60.209442c-3.51588 0-6.592275-3.076395-6.592274-6.592274V288.741631c0-3.51588 3.076395-6.592275 6.592274-6.592275s6.592275 3.076395 6.592275 6.592275v151.182833c0 3.51588-3.076395 6.592275-6.592275 6.592274" fill="#7E9199" p-id="4195"></path></svg>