<?xml version="1.0" standalone="no"?><!DOCTYPE svg PUBLIC "-//W3C//DTD SVG 1.1//EN" "http://www.w3.org/Graphics/SVG/1.1/DTD/svg11.dtd"><svg t="1685869579210" class="icon" viewBox="0 0 1024 1024" version="1.1" xmlns="http://www.w3.org/2000/svg" p-id="14762" xmlns:xlink="http://www.w3.org/1999/xlink" width="48" height="48"><path d="M711.424 93.504l115.712 97.472c53.248 44.8 60.16 124.416 15.552 177.792L387.2 913.28a62.848 62.848 0 0 1-40.704 22.144l-200.96 24.192a62.976 62.976 0 0 1-70.016-55.168l-0.384-4.032-11.136-202.752a63.232 63.232 0 0 1 14.656-44.032l455.424-544.448a125.568 125.568 0 0 1 177.28-15.616z m230.528 532.352l53.568 53.568-266.944 266.88-53.568-53.504 266.88-266.944z m53.568 266.88l-53.568 53.568-266.88-266.88 53.504-53.568 266.88 266.88zM502.656 264.512l-363.008 433.984 10.24 184.256 182.656-21.888 362.88-433.92-192.768-162.432z m93.696-111.296l-4.352 4.608-40.832 48.64 192.896 162.432 40.768-48.704a50.56 50.56 0 0 0-1.6-66.752l-4.608-4.416-115.776-97.408a50.24 50.24 0 0 0-66.56 1.6z" fill="#2c2c2c" p-id="14763"></path></svg>