<?xml version="1.0" standalone="no"?><!DOCTYPE svg PUBLIC "-//W3C//DTD SVG 1.1//EN" "http://www.w3.org/Graphics/SVG/1.1/DTD/svg11.dtd"><svg t="1683969437344" class="icon" viewBox="0 0 1074 1024" version="1.1" xmlns="http://www.w3.org/2000/svg" p-id="1453" xmlns:xlink="http://www.w3.org/1999/xlink" width="50.34375" height="48"><path d="M65.555878 146.263721l83.149629 83.106665a37.879912 37.879912 0 0 0 53.568927-0.014321 37.836948 37.836948 0 0 0-0.014321-53.511642l-43.966477-43.944994a20.178751 20.178751 0 0 1 4.833448-20.801729 20.200233 20.200233 0 0 1 28.563889 0l38.209302 38.187821c75.144007-49.093512 165.318247-77.693203 262.295119-77.693203 19.362435 0 38.452765 1.138546 57.213704 3.358351 186.463688 18.503156 350.85821 145.970134 404.921223 334.410165a458.941271 458.941271 0 0 1-1.238795 258.306629l95.773879 53.060519a42.878055 42.878055 0 0 1 16.720151 58.309286 42.921019 42.921019 0 0 1-58.330769 16.727311l-98.337397-54.478331a37.879912 37.879912 0 0 0-39.133028 19.033045l-0.014321 0.014321a37.851269 37.851269 0 0 0 7.855248 46.529994l46.759135 25.900122a20.178751 20.178751 0 0 1 7.86957 27.432503v0.007161a20.193072 20.193072 0 0 1-27.453986 7.87673l-47.267542-26.193709a475.890562 475.890562 0 0 1-85.498327 77.507026H217.777271a469.94005 469.94005 0 0 1-6.057921-4.389487C93.998035 830.049838 17.565109 693.001892 17.565109 538.388837a458.998556 458.998556 0 0 1 72.422954-247.95947L12.566965 213.051233a42.885216 42.885216 0 0 1 0-60.665145 42.949662 42.949662 0 0 1 52.988913-6.122367z" fill="#F1F1F1" p-id="1454"></path><path d="M27.539913 935.913093h864.807701a11.013101 11.013101 0 1 0 0-22.019041H27.539913a11.013101 11.013101 0 1 0 0 22.019041zM936.400018 935.913093h57.829522a11.013101 11.013101 0 1 0 0-22.019041h-57.836682a11.013101 11.013101 0 1 0 0 22.019041zM567.339401 979.958337h27.547074a11.013101 11.013101 0 1 0 0-22.026202H567.339401a11.013101 11.013101 0 1 0 0 22.019041zM60.593538 1023.99642H371.99649a11.013101 11.013101 0 1 0 0-22.019042H60.593538a11.013101 11.013101 0 1 0 0 22.019042zM451.673197 1023.99642h476.492058a11.013101 11.013101 0 1 0 0-22.019042H451.673197a11.013101 11.013101 0 1 0 0 22.019042zM220.333628 979.958337h275.399134a11.013101 11.013101 0 1 0 0-22.026202H220.333628a11.013101 11.013101 0 1 0 0 22.019041zM660.986563 979.958337h242.359831a11.013101 11.013101 0 1 0 0-22.026202H660.986563a11.013101 11.013101 0 1 0 0 22.019041zM316.716164 49.573276a19.276507 19.276507 0 1 0 0.014322-38.553014 19.276507 19.276507 0 0 0-0.007161 38.545854z m0 11.005941a30.289608 30.289608 0 1 1 30.30393-30.282448 30.289608 30.289608 0 0 1-30.296769 30.282448z" fill="#F1F1F1" p-id="1455"></path><path d="M873.049625 660.650012a19.276507 19.276507 0 1 0 0.014321-38.545854 19.276507 19.276507 0 0 0-0.014321 38.545854z m0 11.013101a30.289608 30.289608 0 1 1 30.289608-30.282447 30.289608 30.289608 0 0 1-30.289608 30.282447z" fill="#FFFFFF" p-id="1456"></path><path d="M382.823413 231.239319a13.769957 13.769957 0 1 0 0-27.532752 13.769957 13.769957 0 0 0 0 27.532752z m0 11.013101a24.775897 24.775897 0 1 1 24.783058-24.775897 24.775897 24.775897 0 0 1-24.783058 24.775897zM145.970134 429.432175a19.276507 19.276507 0 1 0 0.00716-38.545854 19.276507 19.276507 0 0 0-0.00716 38.545854z m0 11.00594a30.289608 30.289608 0 1 1 30.289608-30.275287 30.289608 30.289608 0 0 1-30.289608 30.275287z" fill="#D8D8D8" p-id="1457"></path><path d="M908.852944 44.059565a22.026202 22.026202 0 1 0 0.014321-44.052404 22.026202 22.026202 0 0 0-0.014321 44.059565z" fill="#FFFFFF" p-id="1458"></path><path d="M883.03159 94.148409l-20.966424 49.007584-19.577255-45.778125L787.673029 73.862248l51.757279-22.205219L862.072327 0.021482l24.059831 54.865007 44.76131 18.975759-47.854717 20.286161z" fill="#F1F1F1" p-id="1459"></path><path d="M717.520005 302.86028l21.782739-3.050443-16.218903-12.652893-3.823795-25.062324-14.894181 18.624887-23.587227 3.408476 19.820718 15.610247 2.993157 20.859014 13.927492-17.736964z m-14.736647-33.039304l-7.024611 4.024294 2.721052-3.401316 4.296399-0.622978z m-6.444597 77.829256l-6.014958-41.990133-36.526546-28.757226 44.682542-6.458919 27.883626-34.84379 6.945844 45.570465 33.246962 25.943085-43.107197 6.03644-27.110273 34.500078z" fill="#D8D8D8" p-id="1460"></path><path d="M186.893328 682.289538l-9.301703 27.905108-8.972311-26.909775-30.912587-10.297035 29.910094-9.967644 9.974804-29.895772 10.311356 30.898265L214.819917 672.980675l-27.926589 9.308863z" fill="#FFFFFF" p-id="1461"></path><path d="M325.552424 347.421091l-5.320374 15.946799-5.127035-15.373946-17.665358-5.886066 17.099665-5.699888 5.692728-17.085344 5.893227 17.658197 15.381106 5.127035-15.953959 5.313213z" fill="#D8D8D8" p-id="1462"></path><path d="M335.999832 468.035314h352.526645-352.519484zM732.593202 517.515501v233.058128a44.066726 44.066726 0 0 1-44.066725 44.059565h-352.519484a44.066726 44.066726 0 0 1-44.066726-44.059565V517.515501H732.593202z" fill="#F1F1F1" p-id="1463"></path><path d="M732.593202 663.406868v87.317135a44.066726 44.066726 0 0 1-44.066725 44.066726h-352.519484a44.066726 44.066726 0 0 1-44.066726-44.066726V663.406868H732.593202zM291.940267 517.515501H732.593202v77.070226H291.940267z" fill="#D8D8D8" p-id="1464"></path><path d="M732.593202 517.522662H291.940267v233.072449a44.052404 44.052404 0 0 0 44.059565 44.038083h352.526645A44.052404 44.052404 0 0 0 732.593202 750.602272V517.515501z m11.013101-8.148835v241.221284a55.065505 55.065505 0 0 1-55.079826 55.051184h-352.519484a55.065505 55.065505 0 0 1-55.086988-55.051184V508.092068l462.686298 1.281759z" fill="#BBBBBB" p-id="1465"></path><path d="M324.986731 545.041093m5.506551 0l110.166814 0q5.506551 0 5.50655 5.506551l0 0q0 5.506551-5.50655 5.50655l-110.166814 0q-5.506551 0-5.506551-5.50655l0 0q0-5.506551 5.506551-5.506551Z" fill="#FFFFFF" p-id="1466"></path><path d="M457.179747 545.041093m5.506551 0l11.020262 0q5.506551 0 5.50655 5.506551l0 0q0 5.506551-5.50655 5.50655l-11.020262 0q-5.506551 0-5.506551-5.50655l0 0q0-5.506551 5.506551-5.506551Z" fill="#FFFFFF" p-id="1467"></path><path d="M302.953368 506.509561h416.951138L709.965504 478.983969H312.89237L302.953368 506.509561z m-15.681854 11.00594L305.151692 467.970868H717.699021l17.894499 49.551794h-448.329166z" fill="#BBBBBB" p-id="1468"></path><path d="M302.953368 506.509561l9.939002-27.525592H709.965504l9.939002 27.525592H302.953368z" fill="#FFFFFF" p-id="1469"></path><path d="M181.666043 506.71006L304.349698 467.970868l-4.998144 45.599108L159.74009 553.354624l21.925953-46.637404z m111.971302-2.964515l-3.651939 3.394154 0.96669-2.627963 2.685249-0.766191zM180.004769 536.133228l101.130056-28.821673 9.81011-2.792659 8.299209-22.505966L189.564255 515.804103 180.004769 536.133228zM838.757205 506.71006L716.06639 467.970868l4.998143 45.599108 139.611464 39.784648-21.918792-46.637404z m-111.978462-2.964515l3.651939 3.394154-0.959529-2.627963-2.69241-0.766191z m113.632576 32.387683L739.281262 507.311555l-9.810109-2.792659-8.292049-22.505966L830.858993 515.804103l9.552326 20.329125zM574.077586 737.727398a12.237575 12.237575 0 1 0 0 24.467989h107.717867a12.237575 12.237575 0 1 0 0-24.467989H574.077586z m0-11.013101h107.717867a23.250676 23.250676 0 1 1 0 46.494191H574.077586a23.250676 23.250676 0 1 1 0-46.494191z" fill="#BBBBBB" p-id="1470"></path><path d="M574.070425 737.727398h107.732188a12.230414 12.230414 0 1 1 0 24.467989H574.070425a12.230414 12.230414 0 1 1 0-24.467989z" fill="#FFFFFF" p-id="1471"></path><path d="M555.78925 275.692721c-7.948337-14.249721-22.341271-22.427199-39.47674-22.4272-25.8858 0-41.001961 14.464541-47.66854 39.082904-4.174667 15.373945 22.162255 26.329761 28.033999 5.442105 3.150692-11.2136 7.411287-15.903835 19.634541-15.903835 6.759667 0 11.671882 2.620803 14.550469 7.783642 3.122049 5.599639 2.828462 12.473877 0.723227 15.910995-3.415637 5.585318-7.089057 8.807617-11.32817 12.538322-8.879223 7.805124-19.892324 17.772768-19.892325 44.367474 0 14.106508 14.285524 14.314167 14.285525 14.314167 7.87673 0 14.285524-6.415955 14.285524-14.314167 0-13.91317 2.971676-16.526812 10.153822-22.842518 4.998143-4.389487 11.170636-9.824431 16.841881-19.076009 7.926855-12.94648 7.86957-30.554553-0.143213-44.87588z" fill="#CCCCCC" p-id="1472"></path><path d="M546.372977 314.94748c-4.783323 7.805124-9.996287 12.40227-14.607754 16.469527-7.926855 6.974487-13.648225 12.029915-13.648226 30.611838a3.537368 3.537368 0 1 1-7.060414 0c0-21.797061 7.790802-28.664138 16.054208-35.946532 4.439612-3.909722 9.022437-7.948337 13.232907-14.844057 4.410969-7.196467 4.21047-18.102158-0.494086-26.515938-4.718878-8.463905-13.111176-13.146979-23.62303-13.146979-17.128308 0-26.601866 7.754999-29.795523 24.3749a3.523047 3.523047 0 1 1-6.931522-1.346205c3.845277-19.978252 16.197422-30.110592 36.734206-30.110592 13.175622 0 23.751922 5.964833 29.781201 16.770275 5.986315 10.712353 6.122368 24.246008 0.358033 33.683763z" fill="#F1F1F1" p-id="1473"></path><path d="M515.02359 384.284189a16.849042 16.849042 0 1 0-0.021482 33.705245 16.849042 16.849042 0 0 0 0.021482-33.705245z" fill="#CCCCCC" p-id="1474"></path><path d="M515.02359 407.076582a5.943351 5.943351 0 1 1-0.021482-11.886702 5.943351 5.943351 0 0 1 0.021482 11.886702z" fill="#F1F1F1" p-id="1475"></path></svg>