<?xml version="1.0" standalone="no"?><!DOCTYPE svg PUBLIC "-//W3C//DTD SVG 1.1//EN" "http://www.w3.org/Graphics/SVG/1.1/DTD/svg11.dtd"><svg t="1683814453617" class="icon" viewBox="0 0 1024 1024" version="1.1" xmlns="http://www.w3.org/2000/svg" p-id="5772" xmlns:xlink="http://www.w3.org/1999/xlink" width="48" height="48"><path d="M420.352 926.037333C217.770667 875.52 94.037333 669.696 144.554667 467.114667c32.597333-130.730667 133.461333-235.178667 262.997333-272.384a34.184533 34.184533 0 0 0 23.381333-42.154667 34.269867 34.269867 0 0 0-42.154666-23.381333c-152.917333 44.032-271.872 167.253333-310.442667 321.536-59.562667 238.933333 86.357333 481.962667 325.461333 541.696a34.2016 34.2016 0 0 0 41.472-24.917334c4.437333-18.261333-6.656-36.864-24.917333-41.472zM505.514667 179.2h8.533333c18.602667 0 33.792-14.848 34.133333-33.450667 0.341333-18.773333-14.677333-34.474667-33.450666-34.816h-9.216a34.133333 34.133333 0 1 0 0 68.266667zM658.090667 904.533333c-4.949333 2.218667-10.069333 4.266667-15.189334 6.314667-17.578667 6.826667-26.282667 26.624-19.456 44.202667a34.030933 34.030933 0 0 0 44.202667 19.285333c6.144-2.389333 12.117333-4.949333 17.92-7.509333a34.133333 34.133333 0 0 0 17.408-45.056A33.962667 33.962667 0 0 0 658.090667 904.533333zM642.389333 204.8c5.12 2.048 10.24 4.096 15.36 6.314667 4.437333 2.048 9.216 2.901333 13.653334 2.901333a34.133333 34.133333 0 0 0 31.232-20.48c7.509333-17.237333-0.341333-37.376-17.578667-45.056-5.973333-2.56-11.946667-5.12-18.090667-7.509333-17.578667-6.826667-37.376 1.877333-44.202666 19.456-6.656 17.749333 2.048 37.546667 19.626666 44.373333zM858.453333 420.352a34.030933 34.030933 0 0 0 44.202667 19.285333c17.578667-6.826667 26.282667-26.624 19.456-44.202666-2.389333-6.144-4.778667-12.117333-7.509333-17.92a34.133333 34.133333 0 1 0-62.464 27.648c2.218667 4.949333 4.266667 10.069333 6.314666 15.189333zM778.922667 295.936c6.656 6.997333 15.701333 10.410667 24.576 10.410667a34.2016 34.2016 0 0 0 24.746666-57.856c-4.437333-4.608-9.045333-9.216-13.653333-13.653334-13.653333-12.970667-35.157333-12.458667-48.298667 1.024-12.970667 13.653333-12.629333 35.157333 1.024 48.298667 3.754667 3.925333 7.68 7.68 11.605334 11.776zM902.826667 675.498667c-17.578667-6.826667-37.376 1.877333-44.202667 19.456-2.048 5.12-4.096 10.24-6.314667 15.189333a34.133333 34.133333 0 0 0 31.232 47.957333c13.141333 0 25.6-7.509333 31.232-20.309333 2.730667-5.973333 5.12-12.117333 7.509334-18.090667 6.826667-17.578667-1.877333-37.376-19.456-44.202666zM952.32 547.84c-0.341333-18.773333-15.189333-33.962667-34.816-33.450667-18.773333 0.341333-33.792 16.042667-33.450667 34.816 0 2.730667 0.170667 5.461333 0 8.533334v8.021333c-0.512 18.773333 14.506667 34.474667 33.28 34.816h0.853334c18.432 0 33.621333-14.848 34.133333-33.28 0-3.242667 0.170667-6.314667 0.170667-9.386667 0-3.242667-0.170667-6.656-0.170667-10.069333zM779.093333 819.541333c-3.754667 3.925333-7.68 7.850667-11.776 11.776-13.653333 13.141333-13.994667 34.645333-1.024 48.298667 6.656 6.997333 15.701333 10.410667 24.576 10.410667 8.533333 0 17.066667-3.242667 23.722667-9.557334 4.608-4.437333 9.216-9.045333 13.653333-13.653333 12.970667-13.653333 12.629333-35.157333-1.024-48.298667-13.482667-12.970667-34.986667-12.458667-48.128 1.024zM513.194667 936.448h-7.68c-18.773333 0-34.133333 15.36-34.133334 34.133333s15.36 34.133333 34.133334 34.133334c3.072 0 6.314667 0 9.386666-0.170667 18.773333-0.512 33.792-16.042667 33.28-34.986667s-16.042667-34.304-34.986666-33.109333zM660.821333 736.085333c13.312-13.312 13.312-34.986667 0-48.298666l-120.832-120.832V366.933333c0-18.773333-15.36-34.133333-34.133333-34.133333s-34.133333 15.36-34.133333 34.133333v228.352l140.8 140.8a34.013867 34.013867 0 0 0 48.298666 0z" fill="#2c2c2c" p-id="5773"></path></svg>