<?xml version="1.0" standalone="no"?><!DOCTYPE svg PUBLIC "-//W3C//DTD SVG 1.1//EN" "http://www.w3.org/Graphics/SVG/1.1/DTD/svg11.dtd"><svg t="1684245455362" class="icon" viewBox="0 0 1024 1024" version="1.1" xmlns="http://www.w3.org/2000/svg" p-id="3217" xmlns:xlink="http://www.w3.org/1999/xlink" width="48" height="48"><path d="M512 11.636364C235.659636 11.636364 11.636364 235.659636 11.636364 512S235.659636 1012.363636 512 1012.363636 1012.363636 788.340364 1012.363636 512 788.340364 11.636364 512 11.636364z m0 69.818181c237.777455 0 430.545455 192.768 430.545455 430.545455S749.777455 942.545455 512 942.545455 81.454545 749.777455 81.454545 512 274.222545 81.454545 512 81.454545z" fill="#2c2c2c" fill-opacity=".93" p-id="3218"></path><path d="M500.363636 256a34.909091 34.909091 0 0 1 34.909091 34.909091v240.267636l126.021818 72.773818a34.909091 34.909091 0 0 1-34.90909 60.462546l-141.079273-81.454546a34.792727 34.792727 0 0 1-15.918546-19.991272A34.490182 34.490182 0 0 1 465.454545 546.909091v-256a34.909091 34.909091 0 0 1 34.909091-34.909091z" fill="#2c2c2c" fill-opacity=".93" p-id="3219"></path></svg>