<?xml version="1.0" standalone="no"?><!DOCTYPE svg PUBLIC "-//W3C//DTD SVG 1.1//EN" "http://www.w3.org/Graphics/SVG/1.1/DTD/svg11.dtd"><svg t="1685265764902" class="icon" viewBox="0 0 1024 1024" version="1.1" xmlns="http://www.w3.org/2000/svg" p-id="907" xmlns:xlink="http://www.w3.org/1999/xlink" width="48" height="48"><path d="M675.84 409.6V307.2a163.84 163.84 0 1 0-327.68 0v102.4h327.68z m-409.6 0V307.2c0-135.721 110.039-245.76 245.76-245.76S757.76 171.479 757.76 307.2v102.4a81.92 81.92 0 0 1 81.92 81.92V716.8c0 135.721-110.039 245.76-245.76 245.76H430.08c-135.721 0-245.76-110.039-245.76-245.76V491.52a81.92 81.92 0 0 1 81.92-81.92z m286.72 348.16v-51.876a40.96 40.96 0 0 1 14.193-30.986 81.92 81.92 0 1 0-113.07-2.56c0.798 0.799 1.72 1.638 2.764 2.56a40.96 40.96 0 0 1 14.193 30.986v51.876a40.96 40.96 0 1 0 81.92 0z" p-id="908" fill="#2c2c2c"></path></svg>