<?xml version="1.0" standalone="no"?><!DOCTYPE svg PUBLIC "-//W3C//DTD SVG 1.1//EN" "http://www.w3.org/Graphics/SVG/1.1/DTD/svg11.dtd"><svg t="1685869905915" class="icon" viewBox="0 0 1024 1024" version="1.1" xmlns="http://www.w3.org/2000/svg" p-id="4332" xmlns:xlink="http://www.w3.org/1999/xlink" width="48" height="48"><path d="M512.2 65.4c-247.1 0-447.5 200.4-447.5 447.5s200.4 447.5 447.5 447.5S959.7 760 959.7 512.9 759.3 65.4 512.2 65.4z m220 348L488.8 656.9c-8.1 8.1-18.8 12.2-29.4 12.2-10.7 0-21.3-4.1-29.4-12.2L292.2 519.2c-6.3-6.3-9.7-14.6-9.7-23.5s3.5-17.2 9.7-23.5c13-13 34.1-13 47 0l120.1 120.1 225.9-225.9c13-13 34-13 47 0 6.3 6.3 9.7 14.6 9.7 23.5 0.1 8.9-3.4 17.2-9.7 23.5z" fill="#1296db" p-id="4333"></path></svg>