<?xml version="1.0" standalone="no"?><!DOCTYPE svg PUBLIC "-//W3C//DTD SVG 1.1//EN" "http://www.w3.org/Graphics/SVG/1.1/DTD/svg11.dtd"><svg t="1684245149351" class="icon" viewBox="0 0 1024 1024" version="1.1" xmlns="http://www.w3.org/2000/svg" p-id="1400" xmlns:xlink="http://www.w3.org/1999/xlink" width="48" height="48"><path d="M654.2 333.9c-72.5 0-131.5-59-131.5-131.5s59-131.5 131.5-131.5 131.5 59 131.5 131.5-59 131.5-131.5 131.5z m0-183c-28.4 0-51.5 23.1-51.5 51.5s23.1 51.5 51.5 51.5 51.5-23.1 51.5-51.5-23.1-51.5-51.5-51.5zM266.8 672.4c-90.5 0-164.2-73.6-164.2-164.2 0-90.5 73.6-164.2 164.2-164.2 90.5 0 164.2 73.6 164.2 164.2s-73.6 164.2-164.2 164.2z m0-248.3c-46.4 0-84.2 37.8-84.2 84.2 0 46.4 37.8 84.2 84.2 84.2 46.4 0 84.2-37.8 84.2-84.2 0-46.5-37.7-84.2-84.2-84.2zM734.5 955.6c-103.4 0-187.4-84.1-187.4-187.4 0-103.4 84.1-187.4 187.4-187.4 103.4 0 187.4 84.1 187.4 187.4 0 103.3-84.1 187.4-187.4 187.4z m0-294.9c-59.2 0-107.4 48.2-107.4 107.4s48.2 107.4 107.4 107.4 107.4-48.2 107.4-107.4-48.2-107.4-107.4-107.4z" p-id="1401" fill="#2c2c2c"></path><path d="M367.7 475.8c-11.6 0-23.1-5-31-14.7-14-17.1-11.4-42.3 5.7-56.3L558 229.1c17.1-14 42.3-11.4 56.3 5.7s11.4 42.3-5.7 56.3L392.9 466.8c-7.4 6.1-16.3 9-25.2 9zM605.8 736.1c-6.4 0-12.9-1.5-18.9-4.8l-232-124.8c-19.5-10.5-26.7-34.7-16.3-54.2 10.5-19.5 34.7-26.7 54.2-16.3l232 124.8c19.5 10.5 26.7 34.7 16.3 54.2-7.2 13.4-21 21.1-35.3 21.1z" p-id="1402" fill="#2c2c2c"></path></svg>