<?xml version="1.0" standalone="no"?><!DOCTYPE svg PUBLIC "-//W3C//DTD SVG 1.1//EN" "http://www.w3.org/Graphics/SVG/1.1/DTD/svg11.dtd"><svg t="1685457253456" class="icon" viewBox="0 0 1024 1024" version="1.1" xmlns="http://www.w3.org/2000/svg" p-id="20087" xmlns:xlink="http://www.w3.org/1999/xlink" width="48" height="48"><path d="M512 1024A512 512 0 1 1 512 0a512 512 0 0 1 0 1024z m299.52-675.035429a33.133714 33.133714 0 0 0-46.811429 0L443.245714 670.427429 260.315429 487.497143a32.402286 32.402286 0 1 0-45.860572 45.860571l199.021714 199.094857a32.329143 32.329143 0 0 0 5.851429 8.777143 33.133714 33.133714 0 0 0 46.811429 0l345.380571-345.380571a33.133714 33.133714 0 0 0 0-46.811429z" fill="#07BA6E" p-id="20088"></path></svg>