<?xml version="1.0" standalone="no"?><!DOCTYPE svg PUBLIC "-//W3C//DTD SVG 1.1//EN" "http://www.w3.org/Graphics/SVG/1.1/DTD/svg11.dtd"><svg t="1683974339240" class="icon" viewBox="0 0 1024 1024" version="1.1" xmlns="http://www.w3.org/2000/svg" p-id="13508" xmlns:xlink="http://www.w3.org/1999/xlink" width="48" height="48"><path d="M975.8208 466.0736c40.0896-39.0656 17.9712-107.1104-37.4272-115.1488l-195.4304-28.416A104.81664 104.81664 0 0 1 664.064 265.216l-87.3984-177.1008c-24.7808-50.176-96.3072-50.176-121.088 0L368.2304 265.1648a104.61184 104.61184 0 0 1-78.8992 57.2928l-195.4304 28.416c-55.3472 8.0896-77.4656 76.1344-37.376 115.2l141.4144 137.8304c24.6784 24.064 35.9424 58.7264 30.1056 92.7232l-33.3824 194.6112c-9.472 55.1424 48.4352 97.2288 97.9456 71.168l174.7968-91.904a104.84224 104.84224 0 0 1 97.4848 0l174.7968 91.904c49.5104 26.0608 107.4176-16.0256 97.9456-71.168l-33.3824-194.6112a104.6272 104.6272 0 0 1 30.1568-92.7232l141.4144-137.8304z m-183.5008-44.1344c-2.816 14.6944-15.7184 24.8832-30.1056 24.8832-1.9456 0-3.8912-0.2048-5.8368-0.5632l-98.9184-19.0976c-32.6144-6.7072-60.2112-27.9552-76.1856-58.4192l-42.0352-78.9504c-7.9872-14.9504-2.304-33.5872 12.6976-41.5744a30.71488 30.71488 0 0 1 41.5744 12.6976l42.1376 79.1552c7.4752 14.2336 19.7632 23.9616 33.8432 26.88l98.56 18.9952c16.5888 3.2256 27.4944 19.3536 24.2688 35.9936z" fill="#FF623E" p-id="13509"></path></svg>