<?xml version="1.0" standalone="no"?><!DOCTYPE svg PUBLIC "-//W3C//DTD SVG 1.1//EN" "http://www.w3.org/Graphics/SVG/1.1/DTD/svg11.dtd"><svg t="1685457165761" class="icon" viewBox="0 0 1024 1024" version="1.1" xmlns="http://www.w3.org/2000/svg" p-id="13871" xmlns:xlink="http://www.w3.org/1999/xlink" width="48" height="48"><path d="M1021.446384 510.723192c0 281.919202-228.80399 510.723192-510.723192 510.723192S0 792.642394 0 510.723192 228.80399 0 510.723192 0s510.723192 228.80399 510.723192 510.723192z m-287.026434 7.660848c-17.364589-17.364589-45.965087-17.364589-63.840399 0l-109.294763 109.294763V317.159102c0-25.025436-19.918204-44.943641-44.943641-44.943641s-44.943641 19.918204-44.943641 44.943641v309.498255L363.12419 518.38404c-17.364589-17.364589-45.965087-17.364589-63.840399 0s-17.364589 45.965087 0 63.840399l181.817456 181.817456c9.703741 9.703741 22.47182 13.789526 34.729177 13.278803h0.510723c12.76808 1.021446 25.53616-3.575062 35.2399-12.76808l181.817457-181.817456c18.386035-18.386035 18.386035-46.47581 1.021446-64.351122z" fill="#0190FF" p-id="13872"></path></svg>