<?xml version="1.0" standalone="no"?><!DOCTYPE svg PUBLIC "-//W3C//DTD SVG 1.1//EN" "http://www.w3.org/Graphics/SVG/1.1/DTD/svg11.dtd"><svg t="1685457100474" class="icon" viewBox="0 0 1024 1024" version="1.1" xmlns="http://www.w3.org/2000/svg" p-id="10996" xmlns:xlink="http://www.w3.org/1999/xlink" width="48" height="48"><path d="M512 1024a512 512 0 1 1 512-512 512.170667 512.170667 0 0 1-512 512z m0-204.8a34.133333 34.133333 0 1 0-34.133333-34.133333 34.133333 34.133333 0 0 0 34.133333 34.133333z m0-648.533333a74.581333 74.581333 0 0 0-68.266667 68.266666l34.133334 409.6a34.133333 34.133333 0 0 0 68.266666 0l34.133334-409.6a73.489067 73.489067 0 0 0-68.266667-68.266666z" fill="#E45252" p-id="10997"></path></svg>