<?xml version="1.0" standalone="no"?><!DOCTYPE svg PUBLIC "-//W3C//DTD SVG 1.1//EN" "http://www.w3.org/Graphics/SVG/1.1/DTD/svg11.dtd"><svg t="1684337786585" class="icon" viewBox="0 0 1024 1024" version="1.1" xmlns="http://www.w3.org/2000/svg" p-id="33965" xmlns:xlink="http://www.w3.org/1999/xlink" width="48" height="48"><path d="M711.68 192c97.28 64 163.84 174.08 163.84 299.52 0 197.12-163.84 355.84-360.96 355.84-81.92 0-166.4-25.6-227.84-74.24 240.64-28.16 435.2-238.08 435.2-483.84-2.56-35.84-5.12-66.56-10.24-97.28m-194.56-163.84c61.44 69.12 99.84 158.72 99.84 258.56 0 209.92-171.52 381.44-381.44 381.44-56.32 0-107.52-12.8-156.16-33.28 61.44 181.76 232.96 312.32 435.2 312.32C768 947.2 972.8 742.4 972.8 488.96c0-253.44-204.8-458.24-455.68-460.8z" fill="#000B38" p-id="33966"></path><path d="M360.96 309.76l-104.96-23.04-79.36 74.24-10.24-107.52-97.28-53.76 99.84-43.52 20.48-104.96 74.24 79.36 107.52-12.8-56.32 94.72z" fill="#218BF6" p-id="33967"></path></svg>