<?xml version="1.0" standalone="no"?><!DOCTYPE svg PUBLIC "-//W3C//DTD SVG 1.1//EN" "http://www.w3.org/Graphics/SVG/1.1/DTD/svg11.dtd"><svg t="1684338106451" class="icon" viewBox="0 0 1024 1024" version="1.1" xmlns="http://www.w3.org/2000/svg" p-id="36123" xmlns:xlink="http://www.w3.org/1999/xlink" width="48" height="48"><path d="M512 512m-275.9168 0a275.9168 275.9168 0 1 0 551.8336 0 275.9168 275.9168 0 1 0-551.8336 0Z" fill="#FFCD00" p-id="36124"></path><path d="M51.2 492.544m19.456 0l62.976 0q19.456 0 19.456 19.456l0 0q0 19.456-19.456 19.456l-62.976 0q-19.456 0-19.456-19.456l0 0q0-19.456 19.456-19.456Z" fill="#FFCD00" p-id="36125"></path><path d="M172.382224 824.029551m13.757469-13.75747l44.530757-44.530756q13.75747-13.75747 27.514939 0l0 0q13.75747 13.75747 0 27.514939l-44.530757 44.530757q-13.75747 13.75747-27.514939 0l0 0q-13.75747-13.75747 0-27.51494Z" fill="#FFCD00" p-id="36126"></path><path d="M492.544 870.912m19.456 0l0 0q19.456 0 19.456 19.456l0 62.976q0 19.456-19.456 19.456l0 0q-19.456 0-19.456-19.456l0-62.976q0-19.456 19.456-19.456Z" fill="#FFCD00" p-id="36127"></path><path d="M751.990581 779.526879m13.75747-13.75747l0 0q13.75747-13.75747 27.514939 0l44.530757 44.530757q13.75747 13.75747 0 27.514939l0 0q-13.75747 13.75747-27.514939 0l-44.530757-44.530756q-13.75747-13.75747 0-27.51494Z" fill="#FFCD00" p-id="36128"></path><path d="M870.912 492.544m19.456 0l62.976 0q19.456 0 19.456 19.456l0 0q0 19.456-19.456 19.456l-62.976 0q-19.456 0-19.456-19.456l0 0q0-19.456 19.456-19.456Z" fill="#FFCD00" p-id="36129"></path><path d="M752.01856 244.500221m13.757469-13.75747l44.530757-44.530757q13.75747-13.75747 27.514939 0l0 0q13.75747 13.75747 0 27.51494l-44.530757 44.530756q-13.75747 13.75747-27.514939 0l0 0q-13.75747-13.75747 0-27.514939Z" fill="#FFCD00" p-id="36130"></path><path d="M492.544 51.2m19.456 0l0 0q19.456 0 19.456 19.456l0 62.976q0 19.456-19.456 19.456l0 0q-19.456 0-19.456-19.456l0-62.976q0-19.456 19.456-19.456Z" fill="#FFCD00" p-id="36131"></path><path d="M172.410202 199.941379m13.757469-13.757469l0 0q13.75747-13.75747 27.514939 0l44.530757 44.530756q13.75747 13.75747 0 27.51494l0 0q-13.75747 13.75747-27.514939 0l-44.530757-44.530757q-13.75747-13.75747 0-27.514939Z" fill="#FFCD00" p-id="36132"></path></svg>